<?xml version="1.0" standalone="no"?>
<!DOCTYPE svg PUBLIC "-//W3C//DTD SVG 20010904//EN"
 "http://www.w3.org/TR/2001/REC-SVG-20010904/DTD/svg10.dtd">
<svg version="1.0" xmlns="http://www.w3.org/2000/svg"
 width="500.000000pt" height="500.000000pt" viewBox="0 0 500.000000 500.000000"
 preserveAspectRatio="xMidYMid meet">

<g transform="translate(0.000000,500.000000) scale(0.100000,-0.100000)"
fill="#000000" stroke="none">
<path d="M540 4160 l0 -260 1529 0 1530 0 123 40 c68 22 282 93 476 157 l352
116 0 104 0 103 -2005 0 -2005 0 0 -260z"/>
<path d="M3340 3706 c-663 -222 -1461 -490 -1775 -595 -313 -105 -672 -225
-798 -267 l-227 -75 2 -272 3 -272 500 -167 c1119 -375 2039 -680 2740 -909
407 -133 746 -244 753 -246 9 -4 12 44 12 219 l0 225 -422 141 c-233 77 -751
251 -1153 386 -401 136 -973 328 -1270 427 -297 100 -542 183 -544 185 -2 2
-2 7 1 10 3 3 192 68 419 145 228 77 567 192 754 256 187 63 399 134 470 158
72 24 425 143 785 265 360 122 724 245 808 272 l152 50 0 234 c0 129 -1 234
-2 234 -2 -1 -545 -182 -1208 -404z"/>
<path d="M2750 2914 c-135 -46 -454 -154 -710 -241 -256 -86 -478 -162 -495
-169 l-30 -12 30 -12 c28 -11 482 -164 1173 -396 156 -53 289 -93 295 -91 20
8 93 157 121 244 54 174 54 351 0 525 -33 103 -103 238 -124 237 -8 -1 -125
-39 -260 -85z"/>
<path d="M4009 2893 c-24 -54 -60 -129 -79 -168 l-35 -69 -164 -78 -165 -77
168 -82 168 -81 45 -97 c24 -53 58 -126 75 -163 18 -38 34 -68 37 -68 3 0 33
59 66 131 33 72 67 145 75 163 13 26 41 44 178 111 89 43 162 82 162 85 0 3
-73 42 -162 85 -184 90 -155 58 -258 284 -30 66 -58 120 -61 121 -3 0 -26 -44
-50 -97z"/>
<path d="M540 836 l0 -266 2005 0 2005 0 0 104 0 104 -42 16 c-24 8 -88 29
-143 46 -55 17 -179 58 -275 90 -96 33 -247 83 -335 111 l-160 52 -1527 4
-1528 5 0 -266z"/>
</g>
</svg>
